<svg width="100%" height="100%" viewBox="0 0 2500 1055" version="1.1" xmlns="http://www.w3.org/2000/svg" xmlns:xlink="http://www.w3.org/1999/xlink" xml:space="preserve" style="fill-rule:evenodd;clip-rule:evenodd;stroke-linejoin:round;stroke-miterlimit:1.41421;">
    <path d="M1493.98,363.574C1439.33,363.574 1398.62,390.41 1398.62,455C1398.62,503.662 1425.45,537.451 1491.04,537.451C1546.63,537.451 1584.39,504.688 1584.39,452.979C1584.39,394.385 1550.61,363.574 1493.98,363.574ZM1384.71,819.639C1371.77,835.508 1358.88,852.383 1358.88,872.275C1358.88,911.992 1409.52,923.945 1479.09,923.945C1536.71,923.945 1615.2,919.902 1615.2,866.328C1615.2,834.482 1577.44,832.52 1529.73,829.531L1384.71,819.639ZM1678.78,366.572C1696.63,389.424 1715.54,421.23 1715.54,466.924C1715.54,577.197 1629.1,641.768 1503.94,641.768C1472.12,641.768 1443.31,637.803 1425.45,632.842L1392.65,685.479L1490,691.436C1661.89,702.393 1763.19,707.373 1763.19,839.453C1763.19,953.73 1662.88,1018.27 1490,1018.27C1310.19,1018.27 1241.63,972.568 1241.63,894.092C1241.63,849.385 1261.5,825.586 1296.28,792.744C1263.49,778.887 1252.57,754.062 1252.57,727.217C1252.57,705.342 1263.49,685.488 1281.4,666.592C1299.27,647.744 1319.13,628.848 1342.98,606.992C1294.31,583.145 1257.53,531.484 1257.53,457.949C1257.53,343.721 1333.05,265.264 1485.02,265.264C1527.75,265.264 1553.59,269.189 1576.44,275.195L1770.19,275.195L1770.19,359.609L1678.78,366.572ZM1944.98,186.035C1888.34,186.035 1855.56,153.223 1855.56,96.572C1855.56,40 1888.33,9.17 1944.98,9.17C2002.6,9.17 2035.39,40 2035.39,96.572C2035.39,153.223 2002.61,186.035 1944.98,186.035ZM1816.8,783.076L1816.8,704.629L1867.48,697.695C1881.4,695.693 1883.37,692.725 1883.37,677.793L1883.37,385.703C1883.37,374.805 1880.4,367.812 1870.43,364.863L1816.8,345.967L1827.72,265.518L2033.39,265.518L2033.39,677.793C2033.39,693.711 2034.35,695.693 2049.3,697.705L2099.96,704.639L2099.96,783.076L1816.8,783.076ZM2492.84,744.561C2450.11,765.41 2387.52,784.287 2330.87,784.287C2212.65,784.287 2167.96,736.65 2167.96,624.326L2167.96,364.063C2167.96,358.105 2167.96,354.131 2159.98,354.131L2090.45,354.131L2090.45,265.684C2177.9,255.723 2212.65,212.012 2223.57,103.721L2317.97,103.721L2317.97,244.834C2317.97,251.768 2317.97,254.766 2325.93,254.766L2466,254.766L2466,354.111L2317.97,354.111L2317.97,591.543C2317.97,650.156 2331.89,672.988 2385.52,672.988C2413.37,672.988 2442.15,666.055 2465.99,657.109L2492.84,744.551" style="fill:#2f2707;fill-rule:nonzero;"></path>
    <path d="M1020.79,483.848L566.533,29.619C553.974,17.056 536.919,9.99 519.155,9.99C501.391,9.99 484.337,17.056 471.777,29.619L377.451,123.955L497.109,243.604C525.757,233.861 557.582,241.275 578.975,262.676C600.485,284.214 607.844,316.276 597.881,345.039L713.184,460.361C741.084,450.752 773.281,456.973 795.557,479.287C810.508,494.229 818.917,514.522 818.917,535.659C818.917,556.797 810.508,577.089 795.557,592.031C780.609,606.993 760.305,615.409 739.155,615.409C695.418,615.409 659.428,579.419 659.428,535.682C659.428,525.264 661.471,514.946 665.439,505.313L557.9,397.773L557.891,680.781C565.686,684.636 572.807,689.728 578.975,695.859C593.925,710.806 602.333,731.101 602.333,752.241C602.333,773.381 593.925,793.677 578.975,808.623C547.822,839.775 497.334,839.775 466.23,808.623C451.272,793.675 442.858,773.374 442.858,752.227C442.858,719.949 462.461,690.718 492.324,678.467L492.324,392.822C482.548,388.83 473.673,382.911 466.23,375.42C442.637,351.855 436.963,317.236 449.053,288.262L331.104,170.293L19.639,481.738C7.074,494.303 0.007,511.362 0.007,529.131C0.007,546.9 7.074,563.959 19.639,576.523L473.896,1030.76C499.889,1056.75 542.659,1056.75 568.652,1030.76L1020.79,578.643C1046.78,552.636 1046.78,509.854 1020.79,483.848" style="fill:#de4c36;fill-rule:nonzero;"></path>
</svg>

